<mxfile host="65bd71144e">
    <diagram id="PQX_DsLkATgfhDQ8bXcr" name="Page-1">
        <mxGraphModel dx="758" dy="607" grid="0" gridSize="10" guides="1" tooltips="1" connect="1" arrows="1" fold="1" page="1" pageScale="1" pageWidth="827" pageHeight="1169" math="0" shadow="0">
            <root>
                <mxCell id="0"/>
                <mxCell id="1" parent="0"/>
                <mxCell id="2" value="" style="shape=table;startSize=0;container=1;collapsible=0;childLayout=tableLayout;" parent="1" vertex="1">
                    <mxGeometry x="60" y="240" width="630" height="490" as="geometry"/>
                </mxCell>
                <mxCell id="3" value="" style="shape=partialRectangle;collapsible=0;dropTarget=0;pointerEvents=0;fillColor=none;top=0;left=0;bottom=0;right=0;points=[[0,0.5],[1,0.5]];portConstraint=eastwest;" parent="2" vertex="1">
                    <mxGeometry width="630" height="44" as="geometry"/>
                </mxCell>
                <mxCell id="4" value="Administrador" style="shape=partialRectangle;html=1;whiteSpace=wrap;connectable=0;overflow=hidden;fillColor=none;top=0;left=0;bottom=0;right=0;pointerEvents=1;" parent="3" vertex="1">
                    <mxGeometry width="210" height="44" as="geometry">
                        <mxRectangle width="210" height="44" as="alternateBounds"/>
                    </mxGeometry>
                </mxCell>
                <mxCell id="5" value="interfaz de usuario" style="shape=partialRectangle;html=1;whiteSpace=wrap;connectable=0;overflow=hidden;fillColor=none;top=0;left=0;bottom=0;right=0;pointerEvents=1;" parent="3" vertex="1">
                    <mxGeometry x="210" width="210" height="44" as="geometry">
                        <mxRectangle width="210" height="44" as="alternateBounds"/>
                    </mxGeometry>
                </mxCell>
                <mxCell id="6" value="logica de negocio" style="shape=partialRectangle;html=1;whiteSpace=wrap;connectable=0;overflow=hidden;fillColor=none;top=0;left=0;bottom=0;right=0;pointerEvents=1;" parent="3" vertex="1">
                    <mxGeometry x="420" width="210" height="44" as="geometry">
                        <mxRectangle width="210" height="44" as="alternateBounds"/>
                    </mxGeometry>
                </mxCell>
                <mxCell id="7" value="" style="shape=partialRectangle;collapsible=0;dropTarget=0;pointerEvents=0;fillColor=none;top=0;left=0;bottom=0;right=0;points=[[0,0.5],[1,0.5]];portConstraint=eastwest;" parent="2" vertex="1">
                    <mxGeometry y="44" width="630" height="446" as="geometry"/>
                </mxCell>
                <mxCell id="8" value="" style="shape=partialRectangle;html=1;whiteSpace=wrap;connectable=0;overflow=hidden;fillColor=none;top=0;left=0;bottom=0;right=0;pointerEvents=1;" parent="7" vertex="1">
                    <mxGeometry width="210" height="446" as="geometry">
                        <mxRectangle width="210" height="446" as="alternateBounds"/>
                    </mxGeometry>
                </mxCell>
                <mxCell id="9" value="" style="shape=partialRectangle;html=1;whiteSpace=wrap;connectable=0;overflow=hidden;fillColor=none;top=0;left=0;bottom=0;right=0;pointerEvents=1;" parent="7" vertex="1">
                    <mxGeometry x="210" width="210" height="446" as="geometry">
                        <mxRectangle width="210" height="446" as="alternateBounds"/>
                    </mxGeometry>
                </mxCell>
                <mxCell id="10" value="" style="shape=partialRectangle;html=1;whiteSpace=wrap;connectable=0;overflow=hidden;fillColor=none;top=0;left=0;bottom=0;right=0;pointerEvents=1;" parent="7" vertex="1">
                    <mxGeometry x="420" width="210" height="446" as="geometry">
                        <mxRectangle width="210" height="446" as="alternateBounds"/>
                    </mxGeometry>
                </mxCell>
                <mxCell id="11" style="edgeStyle=none;html=1;entryX=0.25;entryY=0.5;entryDx=0;entryDy=0;entryPerimeter=0;" parent="1" source="12" target="34" edge="1">
                    <mxGeometry relative="1" as="geometry">
                        <mxPoint x="585" y="540" as="targetPoint"/>
                        <Array as="points">
                            <mxPoint x="680" y="340"/>
                            <mxPoint x="680" y="542"/>
                        </Array>
                    </mxGeometry>
                </mxCell>
                <mxCell id="12" value="Consulta datos de entrada" style="rounded=1;whiteSpace=wrap;html=1;fillColor=#FFFFFF;fontColor=#000000;" parent="1" vertex="1">
                    <mxGeometry x="530" y="320" width="110" height="40" as="geometry"/>
                </mxCell>
                <mxCell id="13" style="edgeStyle=none;html=1;entryX=0;entryY=0.5;entryDx=0;entryDy=0;" parent="1" source="14" target="21" edge="1">
                    <mxGeometry relative="1" as="geometry">
                        <mxPoint x="320" y="310" as="targetPoint"/>
                    </mxGeometry>
                </mxCell>
                <mxCell id="14" value="&lt;span style=&quot;color: rgb(0 , 0 , 0)&quot;&gt;Ingresa un chofer&amp;nbsp;&lt;/span&gt;" style="html=1;align=center;verticalAlign=middle;rounded=1;absoluteArcSize=1;arcSize=10;dashed=0;fillColor=#FFFFFF;" parent="1" vertex="1">
                    <mxGeometry x="130" y="290" width="120" height="40" as="geometry"/>
                </mxCell>
                <mxCell id="15" value="" style="ellipse;html=1;fillColor=#FFFFFF;" parent="1" vertex="1">
                    <mxGeometry x="70" y="295" width="30" height="30" as="geometry"/>
                </mxCell>
                <mxCell id="16" value="" style="endArrow=open;html=1;rounded=0;align=center;verticalAlign=top;endFill=0;labelBackgroundColor=none;endSize=6;entryX=0;entryY=0.5;entryDx=0;entryDy=0;" parent="1" source="15" target="14" edge="1">
                    <mxGeometry relative="1" as="geometry">
                        <mxPoint x="130" y="305" as="targetPoint"/>
                    </mxGeometry>
                </mxCell>
                <mxCell id="17" value="" style="ellipse;html=1;shape=endState;fillColor=#000000;strokeColor=#ff0000;" parent="1" vertex="1">
                    <mxGeometry x="120" y="527" width="30" height="30" as="geometry"/>
                </mxCell>
                <mxCell id="18" value="" style="edgeStyle=none;html=1;" parent="1" source="19" target="3" edge="1">
                    <mxGeometry relative="1" as="geometry"/>
                </mxCell>
                <mxCell id="19" value="DAA.14.1.MUESTRA y REGISTRA CHOFERES" style="text;html=1;resizable=0;autosize=1;align=center;verticalAlign=middle;points=[];rounded=0;fillColor=#008a00;fontColor=#ffffff;strokeColor=#005700;" parent="1" vertex="1">
                    <mxGeometry x="240" y="190" width="270" height="20" as="geometry"/>
                </mxCell>
                <mxCell id="20" style="edgeStyle=none;html=1;entryX=0.5;entryY=0;entryDx=0;entryDy=0;" parent="1" source="21" target="26" edge="1">
                    <mxGeometry relative="1" as="geometry"/>
                </mxCell>
                <mxCell id="21" value="Ingresa datos de entrada&amp;nbsp;" style="whiteSpace=wrap;html=1;fillColor=#FFFFFF;fontColor=#000000;rounded=1;" parent="1" vertex="1">
                    <mxGeometry x="315" y="287.5" width="120" height="45" as="geometry"/>
                </mxCell>
                <mxCell id="22" style="edgeStyle=none;html=1;entryX=0;entryY=0.5;entryDx=0;entryDy=0;fillColor=#d5e8d4;gradientColor=#97d077;strokeColor=#82b366;" parent="1" source="26" target="12" edge="1">
                    <mxGeometry relative="1" as="geometry">
                        <Array as="points">
                            <mxPoint x="500" y="395"/>
                            <mxPoint x="500" y="340"/>
                        </Array>
                    </mxGeometry>
                </mxCell>
                <mxCell id="23" value="SI" style="edgeLabel;html=1;align=center;verticalAlign=middle;resizable=0;points=[];" parent="22" vertex="1" connectable="0">
                    <mxGeometry x="-0.7394" y="2" relative="1" as="geometry">
                        <mxPoint as="offset"/>
                    </mxGeometry>
                </mxCell>
                <mxCell id="24" style="edgeStyle=none;html=1;entryX=0.5;entryY=0;entryDx=0;entryDy=0;fillColor=#f8cecc;strokeColor=#b85450;gradientColor=#ea6b66;" parent="1" source="26" target="30" edge="1">
                    <mxGeometry relative="1" as="geometry"/>
                </mxCell>
                <mxCell id="25" value="NO&amp;nbsp;" style="edgeLabel;html=1;align=center;verticalAlign=middle;resizable=0;points=[];" parent="24" vertex="1" connectable="0">
                    <mxGeometry x="-0.4057" y="-1" relative="1" as="geometry">
                        <mxPoint as="offset"/>
                    </mxGeometry>
                </mxCell>
                <mxCell id="26" value="&lt;span style=&quot;color: rgb(0 , 0 , 0)&quot;&gt;Existe&lt;/span&gt;" style="rhombus;whiteSpace=wrap;html=1;fillColor=#ffffc0;strokeColor=#ff0000;" parent="1" vertex="1">
                    <mxGeometry x="330" y="370" width="90" height="50" as="geometry"/>
                </mxCell>
                <mxCell id="27" style="edgeStyle=none;html=1;entryX=1;entryY=0.5;entryDx=0;entryDy=0;" parent="1" source="28" target="17" edge="1">
                    <mxGeometry relative="1" as="geometry"/>
                </mxCell>
                <mxCell id="28" value="Muestra datos de entrada" style="rounded=1;whiteSpace=wrap;html=1;fillColor=#FFFFFF;fontColor=#000000;" parent="1" vertex="1">
                    <mxGeometry x="320" y="522" width="110" height="40" as="geometry"/>
                </mxCell>
                <mxCell id="29" style="edgeStyle=none;html=1;entryX=0;entryY=0.5;entryDx=0;entryDy=0;" parent="1" source="30" target="32" edge="1">
                    <mxGeometry relative="1" as="geometry">
                        <Array as="points">
                            <mxPoint x="500" y="490"/>
                            <mxPoint x="500" y="400"/>
                        </Array>
                    </mxGeometry>
                </mxCell>
                <mxCell id="30" value="Crea datos de entrada&amp;nbsp;" style="rounded=1;whiteSpace=wrap;html=1;fillColor=#FFFFFF;fontColor=#000000;" parent="1" vertex="1">
                    <mxGeometry x="320" y="470" width="110" height="40" as="geometry"/>
                </mxCell>
                <mxCell id="31" style="edgeStyle=none;html=1;entryX=0.75;entryY=0.5;entryDx=0;entryDy=0;entryPerimeter=0;" parent="1" source="32" target="34" edge="1">
                    <mxGeometry relative="1" as="geometry">
                        <Array as="points">
                            <mxPoint x="585" y="492"/>
                        </Array>
                    </mxGeometry>
                </mxCell>
                <mxCell id="32" value="Almacena datos de entrada" style="rounded=1;whiteSpace=wrap;html=1;fillColor=#FFFFFF;fontColor=#000000;" parent="1" vertex="1">
                    <mxGeometry x="530" y="380" width="110" height="40" as="geometry"/>
                </mxCell>
                <mxCell id="33" style="edgeStyle=none;html=1;entryX=1;entryY=0.5;entryDx=0;entryDy=0;" parent="1" source="34" target="28" edge="1">
                    <mxGeometry relative="1" as="geometry">
                        <Array as="points">
                            <mxPoint x="510" y="517"/>
                            <mxPoint x="510" y="542"/>
                        </Array>
                    </mxGeometry>
                </mxCell>
                <mxCell id="34" value="" style="shape=line;html=1;strokeWidth=6;strokeColor=#ff0000;rotation=-90;" parent="1" vertex="1">
                    <mxGeometry x="510" y="512" width="100" height="10" as="geometry"/>
                </mxCell>
            </root>
        </mxGraphModel>
    </diagram>
</mxfile>